<mxfile host="app.diagrams.net" modified="2024-07-18T08:23:06.481Z" agent="Mozilla/5.0 (Windows NT 10.0; Win64; x64) AppleWebKit/537.36 (KHTML, like Gecko) Chrome/125.0.0.0 Safari/537.36 OPR/111.0.0.0" version="24.7.1" etag="3sp1mVUvuW4yZPOb2Rpi" type="github">
  <diagram name="Page-1" id="SsRzKHZH-gOYaTy1nq09">
    <mxGraphModel>
      <root>
        <mxCell id="0" />
        <mxCell id="1" parent="0" />
      </root>
    </mxGraphModel>
  </diagram>
</mxfile>
